HIERARCHY
ROOT Hips
{
	OFFSET 0.000000 100.481300 0.000000
	CHANNELS 6 Xposition Yposition Zposition Xrotation Yrotation Zrotation
	JOINT Spine
	{
		OFFSET -0.279200 12.230698 -2.892100
		CHANNELS 3 Xrotation Yrotation Zrotation
		JOINT Spine1
		{
			OFFSET -0.325700 14.269203 -3.374200
			CHANNELS 3 Xrotation Yrotation Zrotation
			JOINT Spine2
			{
				OFFSET -0.372300 16.307602 -0.352600
				CHANNELS 3 Xrotation Yrotation Zrotation
				JOINT Neck
				{
					OFFSET -0.418800 17.814194 8.416900
					CHANNELS 3 Xrotation Yrotation Zrotation
					JOINT Head
					{
						OFFSET 0.000000 7.031097 3.806800
						CHANNELS 3 Xrotation Yrotation Zrotation
						JOINT HeadTop_End
						{
							OFFSET 0.000000 24.646606 12.978600
							CHANNELS 3 Xrotation Yrotation Zrotation
							End Site
							{
								OFFSET 0.000000 27.854965 0.000000
							}
						}
					}
				}
				JOINT LeftShoulder
				{
					OFFSET 16.952999 14.495407 -7.737500
					CHANNELS 3 Xrotation Yrotation Zrotation
					JOINT LeftArm
					{
						OFFSET 9.308998 -2.777710 0.208600
						CHANNELS 3 Xrotation Yrotation Zrotation
						JOINT LeftForeArm
						{
							OFFSET 29.972298 0.000000 0.000000
							CHANNELS 3 Xrotation Yrotation Zrotation
							JOINT LeftHand
							{
								OFFSET 26.026505 0.000000 0.000000
								CHANNELS 3 Xrotation Yrotation Zrotation
								JOINT LeftHandThumb1
								{
									OFFSET 12.240501 -7.147949 9.207150
									CHANNELS 3 Xrotation Yrotation Zrotation
									JOINT LeftHandThumb2
									{
										OFFSET 4.138618 -2.389435 2.389433
										CHANNELS 3 Xrotation Yrotation Zrotation
										JOINT LeftHandThumb3
										{
											OFFSET 2.726913 -1.574387 1.574386
											CHANNELS 3 Xrotation Yrotation Zrotation
											JOINT LeftHandThumb4
											{
												OFFSET 3.941010 -2.275345 2.275342
												CHANNELS 3 Xrotation Yrotation Zrotation
												End Site
												{
													OFFSET -0.005798 5.087799 0.009903
												}
											}
										}
									}
								}
								JOINT LeftHandIndex1
								{
									OFFSET 24.424698 -1.985611 5.953459
									CHANNELS 3 Xrotation Yrotation Zrotation
									JOINT LeftHandIndex2
									{
										OFFSET 6.426697 0.000000 0.000000
										CHANNELS 3 Xrotation Yrotation Zrotation
										JOINT LeftHandIndex3
										{
											OFFSET 5.337898 0.000000 0.000000
											CHANNELS 3 Xrotation Yrotation Zrotation
											JOINT LeftHandIndex4
											{
												OFFSET 4.409401 0.000000 0.000000
												CHANNELS 3 Xrotation Yrotation Zrotation
												End Site
												{
													OFFSET 0.000000 4.409363 0.014373
												}
											}
										}
									}
								}
								JOINT LeftHandMiddle1
								{
									OFFSET 23.810104 0.000000 0.000000
									CHANNELS 3 Xrotation Yrotation Zrotation
									JOINT LeftHandMiddle2
									{
										OFFSET 7.176498 0.000000 0.000000
										CHANNELS 3 Xrotation Yrotation Zrotation
										JOINT LeftHandMiddle3
										{
											OFFSET 6.774902 0.000000 0.000000
											CHANNELS 3 Xrotation Yrotation Zrotation
											JOINT LeftHandMiddle4
											{
												OFFSET 5.403328 0.000000 0.000000
												CHANNELS 3 Xrotation Yrotation Zrotation
												End Site
												{
													OFFSET -0.027702 5.403244 0.017414
												}
											}
										}
									}
								}
								JOINT LeftHandRing1
								{
									OFFSET 22.908401 -0.839279 -6.020567
									CHANNELS 3 Xrotation Yrotation Zrotation
									JOINT LeftHandRing2
									{
										OFFSET 6.337502 0.000000 0.000000
										CHANNELS 3 Xrotation Yrotation Zrotation
										JOINT LeftHandRing3
										{
											OFFSET 5.779297 0.000000 0.000000
											CHANNELS 3 Xrotation Yrotation Zrotation
											JOINT LeftHandRing4
											{
												OFFSET 4.965698 0.000000 0.000000
												CHANNELS 3 Xrotation Yrotation Zrotation
												End Site
												{
													OFFSET 0.000000 4.965668 0.016186
												}
											}
										}
									}
								}
								JOINT LeftHandPinky1
								{
									OFFSET 20.037003 -1.530319 -10.950146
									CHANNELS 3 Xrotation Yrotation Zrotation
									JOINT LeftHandPinky2
									{
										OFFSET 5.254700 0.000000 0.000000
										CHANNELS 3 Xrotation Yrotation Zrotation
										JOINT LeftHandPinky3
										{
											OFFSET 4.810204 0.000000 0.000000
											CHANNELS 3 Xrotation Yrotation Zrotation
											JOINT LeftHandPinky4
											{
												OFFSET 3.647202 0.000000 0.000000
												CHANNELS 3 Xrotation Yrotation Zrotation
												End Site
												{
													OFFSET 0.000000 3.647186 0.011889
												}
											}
										}
									}
								}
							}
						}
					}
				}
				JOINT RightShoulder
				{
					OFFSET -15.141001 14.495407 -7.737500
					CHANNELS 3 Xrotation Yrotation Zrotation
					JOINT RightArm
					{
						OFFSET -9.308998 -2.777710 0.208500
						CHANNELS 3 Xrotation Yrotation Zrotation
						JOINT RightForeArm
						{
							OFFSET -29.972300 0.000000 0.000000
							CHANNELS 3 Xrotation Yrotation Zrotation
							JOINT RightHand
							{
								OFFSET -26.026505 0.000000 0.000000
								CHANNELS 3 Xrotation Yrotation Zrotation
								JOINT RightHandThumb1
								{
									OFFSET -12.240601 -7.148026 9.207092
									CHANNELS 3 Xrotation Yrotation Zrotation
									JOINT RightHandThumb2
									{
										OFFSET -4.138618 -2.389435 2.389433
										CHANNELS 3 Xrotation Yrotation Zrotation
										JOINT RightHandThumb3
										{
											OFFSET -2.726974 -1.574417 1.574421
											CHANNELS 3 Xrotation Yrotation Zrotation
											JOINT RightHandThumb4
											{
												OFFSET -3.941010 -2.275345 2.275343
												CHANNELS 3 Xrotation Yrotation Zrotation
												End Site
												{
													OFFSET 0.005814 5.087799 0.009927
												}
											}
										}
									}
								}
								JOINT RightHandIndex1
								{
									OFFSET -24.424698 -1.985657 5.953444
									CHANNELS 3 Xrotation Yrotation Zrotation
									JOINT RightHandIndex2
									{
										OFFSET -6.426697 0.000000 0.000000
										CHANNELS 3 Xrotation Yrotation Zrotation
										JOINT RightHandIndex3
										{
											OFFSET -5.337898 0.000000 0.000000
											CHANNELS 3 Xrotation Yrotation Zrotation
											JOINT RightHandIndex4
											{
												OFFSET -4.409401 0.000000 0.000000
												CHANNELS 3 Xrotation Yrotation Zrotation
												End Site
												{
													OFFSET 0.000000 4.409363 0.014408
												}
											}
										}
									}
								}
								JOINT RightHandMiddle1
								{
									OFFSET -23.810097 0.000000 0.000000
									CHANNELS 3 Xrotation Yrotation Zrotation
									JOINT RightHandMiddle2
									{
										OFFSET -7.176498 0.000000 0.000000
										CHANNELS 3 Xrotation Yrotation Zrotation
										JOINT RightHandMiddle3
										{
											OFFSET -6.774902 0.000000 0.000000
											CHANNELS 3 Xrotation Yrotation Zrotation
											JOINT RightHandMiddle4
											{
												OFFSET -5.403328 0.000000 0.000000
												CHANNELS 3 Xrotation Yrotation Zrotation
												End Site
												{
													OFFSET 0.027702 5.403244 0.017457
												}
											}
										}
									}
								}
								JOINT RightHandRing1
								{
									OFFSET -22.908302 -0.839325 -6.020576
									CHANNELS 3 Xrotation Yrotation Zrotation
									JOINT RightHandRing2
									{
										OFFSET -6.337502 0.000000 0.000000
										CHANNELS 3 Xrotation Yrotation Zrotation
										JOINT RightHandRing3
										{
											OFFSET -5.779297 0.000000 0.000000
											CHANNELS 3 Xrotation Yrotation Zrotation
											JOINT RightHandRing4
											{
												OFFSET -4.965698 0.000000 0.000000
												CHANNELS 3 Xrotation Yrotation Zrotation
												End Site
												{
													OFFSET 0.000000 4.965668 0.016226
												}
											}
										}
									}
								}
								JOINT RightHandPinky1
								{
									OFFSET -20.037003 -1.530334 -10.950259
									CHANNELS 3 Xrotation Yrotation Zrotation
									JOINT RightHandPinky2
									{
										OFFSET -5.254700 0.000000 0.000000
										CHANNELS 3 Xrotation Yrotation Zrotation
										JOINT RightHandPinky3
										{
											OFFSET -4.810204 0.000000 0.000000
											CHANNELS 3 Xrotation Yrotation Zrotation
											JOINT RightHandPinky4
											{
												OFFSET -3.647202 0.000000 0.000000
												CHANNELS 3 Xrotation Yrotation Zrotation
												End Site
												{
													OFFSET 0.000000 3.647186 0.011917
												}
											}
										}
									}
								}
							}
						}
					}
				}
			}
		}
	}
	JOINT LeftUpLeg
	{
		OFFSET 15.427100 -6.655098 0.678600
		CHANNELS 3 Xrotation Yrotation Zrotation
		JOINT LeftLeg
		{
			OFFSET 4.081073 -39.591068 13.024000
			CHANNELS 3 Xrotation Yrotation Zrotation
			JOINT LeftFoot
			{
				OFFSET -4.081074 -37.707932 -15.979700
				CHANNELS 3 Xrotation Yrotation Zrotation
				JOINT LeftToeBase
				{
					OFFSET 5.346399 -15.068900 20.645000
					CHANNELS 3 Xrotation Yrotation Zrotation
					JOINT LeftToe_End
					{
						OFFSET 2.754700 0.931300 11.300900
						CHANNELS 3 Xrotation Yrotation Zrotation
						End Site
						{
							OFFSET 0.000000 11.669021 0.000000
						}
					}
				}
			}
		}
	}
	JOINT RightUpLeg
	{
		OFFSET -15.569500 -6.655098 0.678600
		CHANNELS 3 Xrotation Yrotation Zrotation
		JOINT RightLeg
		{
			OFFSET -4.081825 -39.591045 13.023800
			CHANNELS 3 Xrotation Yrotation Zrotation
			JOINT RightFoot
			{
				OFFSET 4.081824 -37.707954 -15.979600
				CHANNELS 3 Xrotation Yrotation Zrotation
				JOINT RightToeBase
				{
					OFFSET -5.346400 -15.068900 20.645000
					CHANNELS 3 Xrotation Yrotation Zrotation
					JOINT RightToe_End
					{
						OFFSET -2.754700 0.931300 11.300900
						CHANNELS 3 Xrotation Yrotation Zrotation
						End Site
						{
							OFFSET 0.000000 11.669021 0.000000
						}
					}
				}
			}
		}
	}
}
MOTION
Frames: 4
Frame Time: 0.033333
-1.227052 217.011917 10.542274 -21.121441 -32.341198 3.221444 14.776826 -0.379882 -4.108926 29.514521 -1.721861 -6.705811 29.514528 -1.721860 -6.705810 1.865628 4.451093 -6.518804 2.113172 7.328645 1.554786 -0.000001 0.000000 -0.000000 -4.113440 1.671408 0.666190 -27.705790 8.108620 5.973637 -11.421893 -18.011673 -9.829116 -3.601876 -16.375602 34.301763 9.150507 4.792306 -5.501594 -0.311818 0.084096 0.791525 0.000009 -0.000003 0.000002 0.000001 0.000003 0.000000 -0.901915 -6.980984 -3.808475 0.033491 0.804163 -16.419208 0.000002 0.000001 0.000000 0.000001 -0.000001 -0.000000 1.947820 9.683023 -14.539980 -0.456513 -1.565447 -21.881341 -0.000000 0.000005 0.000001 0.000000 -0.000004 0.000001 2.605805 14.896836 -31.345493 -0.576923 -2.712329 -32.011895 0.000005 -0.000002 0.000004 0.000001 -0.000000 0.000003 4.170519 18.495054 -34.987606 -0.706835 -5.788549 -39.373268 0.000001 0.000004 0.000001 -0.000003 -0.000000 -0.000004 -5.378309 -12.971010 -1.368823 -23.271059 -14.249982 -1.670368 -4.396305 27.833137 3.351022 1.715206 5.883094 -37.145492 -8.895824 -4.903112 -0.383548 7.904900 -19.192452 -2.856692 0.000002 0.000009 0.000002 -0.000004 0.000001 -0.000002 -1.085521 -1.215508 4.525220 0.142127 -1.115643 16.942520 -0.000001 -0.000001 0.000000 -0.000002 0.000000 -0.000001 -0.663653 -2.903938 12.731488 -0.660565 1.813284 30.578771 -0.000001 -0.000001 0.000003 -0.000001 -0.000002 0.000001 2.423610 -7.404604 21.763189 -0.989719 3.764131 37.430956 -0.000002 -0.000000 0.000000 -0.000002 0.000001 0.000001 3.481013 -10.055126 24.322635 -1.458326 7.871823 41.091750 0.000000 -0.000000 0.000001 -0.000003 0.000001 -0.000000 -77.683450 -7.963463 25.276344 118.522811 -9.416846 -4.573529 11.252101 -0.934719 -18.033267 -1.476110 0.000000 0.000001 0.000000 -0.000000 0.000000 -78.408529 -16.941769 -17.425604 127.534727 1.031309 -6.651080 32.599137 4.567762 22.610365 2.803025 -0.000013 0.000002 -0.000000 0.000000 -0.000000 
-1.019717 216.358246 17.182964 -17.971963 -30.839079 4.405471 14.401222 -1.091493 -3.722424 28.787250 -1.933521 -5.399638 28.787232 -1.933519 -5.399641 -1.011863 3.367404 -5.075932 3.037329 6.386667 0.963918 -0.000001 0.000000 -0.000001 -3.132897 -1.735857 -1.109437 -27.770583 5.654469 4.603176 -9.047061 -17.007806 -10.014230 -1.310135 -14.918552 33.936563 9.150996 4.793060 -5.501480 -0.312620 0.082259 0.791249 0.000004 -0.000006 0.000002 -0.000001 -0.000001 -0.000002 -0.901938 -6.980975 -3.809467 0.033437 0.804079 -16.420132 0.000002 -0.000001 -0.000001 -0.000001 0.000000 -0.000001 1.947794 9.682748 -14.540943 -0.456575 -1.565532 -21.882266 -0.000002 0.000009 0.000001 0.000002 0.000002 -0.000001 2.605731 14.896593 -31.346450 -0.576988 -2.712391 -32.012830 -0.000001 -0.000002 0.000003 -0.000003 -0.000000 -0.000000 4.170418 18.494880 -34.988570 -0.706881 -5.788578 -39.374207 0.000002 0.000002 -0.000001 -0.000000 0.000000 -0.000001 -3.905058 -8.418753 -0.070721 -22.503902 -16.505656 -1.933789 -3.236689 28.710745 3.930758 2.544179 4.759875 -36.073511 -8.896022 -4.903029 -0.383581 7.904852 -19.192371 -2.856689 0.000003 0.000006 0.000010 0.000002 -0.000002 -0.000003 -1.085524 -1.215443 4.525201 0.142124 -1.115651 16.942487 0.000001 -0.000001 0.000001 0.000001 0.000000 -0.000000 -0.663659 -2.903937 12.731441 -0.660536 1.813272 30.578702 0.000002 -0.000001 0.000002 0.000000 -0.000001 -0.000000 2.423615 -7.404644 21.763098 -0.989697 3.764121 37.430939 0.000000 0.000001 0.000003 0.000001 0.000000 -0.000002 3.481067 -10.055229 24.322594 -1.458321 7.871810 41.091668 -0.000001 0.000001 -0.000004 -0.000000 -0.000002 -0.000002 -68.410683 -3.539621 24.704892 109.167801 -6.587343 -6.372373 -1.788495 0.057904 -11.484237 -0.050882 0.241531 -0.667874 -0.000001 -0.000000 -0.000000 -81.046902 -19.605385 -15.065331 117.813974 7.312480 -5.671337 36.718267 5.654015 19.457879 6.496621 -0.466279 -0.541263 -0.000000 0.000002 0.000005 
-0.728160 214.225677 23.696276 -14.126978 -28.822452 5.599136 13.809027 -1.507943 -3.287545 27.622950 -2.236571 -4.280191 27.622941 -2.236571 -4.280193 -4.066902 1.965684 -2.775637 4.264628 5.520804 -0.339998 0.000003 -0.000001 0.000002 -2.364824 -5.302710 -1.891400 -27.958874 3.139407 2.978148 -6.201849 -16.466198 -9.887100 1.371328 -13.311386 32.199223 9.151806 4.794451 -5.501325 -0.314134 0.078993 0.790751 0.000009 -0.000001 -0.000001 0.000002 0.000006 -0.000001 -0.901916 -6.980486 -3.803364 0.033644 0.804701 -16.414695 0.000001 0.000003 -0.000002 -0.000001 -0.000001 -0.000002 1.947981 9.683546 -14.534892 -0.456331 -1.564982 -21.876811 -0.000001 0.000002 -0.000000 0.000001 0.000003 0.000002 2.606028 14.897167 -31.340425 -0.576787 -2.712097 -32.007332 0.000003 -0.000006 0.000001 -0.000003 0.000000 0.000002 4.170714 18.495298 -34.982535 -0.706782 -5.788501 -39.368736 0.000002 0.000002 -0.000000 0.000002 -0.000000 0.000001 -2.336060 -3.202569 1.749335 -23.246564 -17.005076 -3.935857 -2.348264 28.315225 4.534642 2.715361 5.519797 -33.658083 -8.895520 -4.903235 -0.383521 7.904977 -19.192647 -2.856695 0.000003 0.000004 0.000005 0.000000 0.000001 -0.000001 -1.085506 -1.215627 4.525224 0.142111 -1.115632 16.942559 -0.000000 -0.000002 0.000001 -0.000000 -0.000000 -0.000001 -0.663648 -2.903955 12.731575 -0.660570 1.813291 30.578880 0.000003 0.000000 -0.000001 -0.000001 -0.000001 -0.000001 2.423585 -7.404531 21.763356 -0.989714 3.764129 37.430946 -0.000000 0.000001 0.000001 0.000001 -0.000001 -0.000001 3.480928 -10.054931 24.322742 -1.458331 7.871843 41.091900 0.000000 -0.000002 -0.000002 0.000001 0.000000 -0.000001 -64.831937 -1.803165 23.924051 100.678737 -4.486852 -7.776657 -5.282765 0.107426 -7.885621 1.716663 0.655676 -1.671730 0.000000 -0.000000 0.000000 -79.170580 -18.325999 -14.731014 108.034789 14.364810 -2.581436 38.191768 5.724394 17.672368 8.016782 -0.545835 -0.602742 0.000002 0.000001 -0.000002 
-0.386503 210.123199 30.236679 -9.755269 -26.015183 6.651656 12.965192 -1.761614 -2.793001 25.948597 -2.575518 -3.319570 25.948594 -2.575517 -3.319560 -6.456616 0.526396 -0.034888 5.716662 4.735426 -1.838573 -0.000001 -0.000000 0.000001 -1.673956 -8.704903 -2.053417 -27.839453 0.987015 1.393045 -2.681904 -16.306404 -9.456876 3.991347 -11.654753 29.151452 9.149300 4.790324 -5.501826 -0.309606 0.088874 0.792261 0.000007 -0.000001 0.000000 0.000000 0.000001 0.000001 -0.901847 -6.980716 -3.801617 0.033676 0.804912 -16.413209 -0.000000 -0.000000 -0.000000 0.000000 -0.000002 -0.000000 1.948001 9.684255 -14.533278 -0.456268 -1.564828 -21.875286 -0.000003 0.000008 0.000001 -0.000002 0.000000 0.000001 2.606131 14.897770 -31.338817 -0.576748 -2.712001 -32.005802 0.000004 -0.000002 0.000004 0.000002 0.000001 0.000001 4.170936 18.495775 -34.980933 -0.706760 -5.788461 -39.367185 0.000003 0.000005 -0.000001 0.000001 -0.000002 -0.000003 -1.004871 2.001443 3.830893 -24.953876 -15.438773 -7.002590 -1.652478 27.715274 5.202767 2.627562 8.285474 -30.142728 -8.895083 -4.903398 -0.383461 7.905109 -19.192912 -2.856695 0.000006 0.000010 0.000005 -0.000002 0.000002 0.000002 -1.085485 -1.215801 4.525239 0.142107 -1.115641 16.942598 -0.000001 -0.000000 -0.000000 -0.000002 0.000000 0.000000 -0.663643 -2.903992 12.731681 -0.660565 1.813295 30.579023 0.000001 0.000001 0.000000 0.000001 -0.000001 0.000002 2.423555 -7.404460 21.763587 -0.989703 3.764122 37.430950 -0.000001 -0.000000 -0.000005 0.000000 -0.000001 0.000001 3.480816 -10.054660 24.322876 -1.458348 7.871854 41.092085 -0.000001 -0.000002 0.000000 0.000002 -0.000000 -0.000002 -64.614737 -1.175424 23.291162 94.412995 -4.027206 -8.856067 -1.761273 0.098336 -6.595952 2.519699 1.229267 -2.382957 -0.000000 0.000000 -0.000000 -76.463496 -15.594179 -15.339060 99.442971 18.238598 0.835475 39.379814 5.395598 17.075939 7.531722 -0.568841 -0.483683 0.000001 0.000001 0.000002 
